Coordinates
version=1
nRows=21
nColumns=12
inDegrees=yes

Units are S.I. units (second, meters, Newtons, ...)
Angles are in degrees

endheader
time	SC_y	SC_z	SC_x	AC_y	AC_z	AC_x	GH_y	GH_z	GH_yy	EL_x	PS_y
       0.0              -58.79          11.13          55.02          61.07         -3.565         -16.71         -87.57          3.697          160.8          82.92          130.4
   0.03937              -58.78          11.13          55.02          61.07         -3.566         -16.71         -87.54          3.697          160.7          82.92          130.4
   0.07874              -58.78          11.13          55.02          61.07         -3.568          -16.7         -87.51          3.697          160.7          82.93          130.4
    0.1181              -58.77          11.12          55.03          61.06         -3.569          -16.7         -87.47          3.697          160.7          82.93          130.4
    0.1575              -58.77          11.12          55.03          61.06         -3.571         -16.69         -87.44          3.697          160.6          82.94          130.4
    0.1968              -58.76          11.12          55.03          61.06         -3.572         -16.69         -87.39          3.698          160.6          82.95          130.4
    0.2362              -58.75          11.12          55.03          61.06         -3.574         -16.68         -87.35          3.698          160.5          82.96          130.4
    0.2756              -58.75          11.11          55.03          61.05         -3.576         -16.67         -87.31          3.698          160.5          82.96          130.4
     0.315              -58.74          11.11          55.03          61.05         -3.578         -16.66         -87.26          3.698          160.4          82.97          130.4
    0.3543              -58.73          11.11          55.03          61.05          -3.58         -16.66          -87.2          3.698          160.3          82.98          130.4
    0.3937              -58.72           11.1          55.03          61.04         -3.582         -16.65         -87.15          3.698          160.3          82.99          130.4
    0.4331              -58.71           11.1          55.03          61.04         -3.585         -16.64         -87.08          3.699          160.2           83.0          130.4
    0.4724               -58.7          11.09          55.03          61.04         -3.588         -16.63         -87.02          3.699          160.1          83.01          130.4
    0.5118              -58.69          11.09          55.03          61.03          -3.59         -16.62         -86.95          3.699          160.0          83.03          130.4
    0.5512              -58.68          11.08          55.03          61.03         -3.594         -16.61         -86.87          3.699          159.9          83.04          130.4
    0.5905              -58.66          11.08          55.03          61.02         -3.597         -16.59         -86.79          3.699          159.8          83.05          130.4
    0.6299              -58.65          11.07          55.04          61.01         -3.601         -16.58         -86.69            3.7          159.7          83.07          130.4
    0.6693              -58.64          11.06          55.04          61.01         -3.605         -16.57          -86.6            3.7          159.6          83.09          130.4
    0.7086              -58.62          11.06          55.04           61.0         -3.609         -16.55         -86.49            3.7          159.4          83.11          130.5
     0.748               -58.6          11.05          55.04          60.99         -3.614         -16.53         -86.37          3.701          159.3          83.13          130.5
    0.7874              -58.58          11.04          55.04          60.99         -3.619         -16.51         -86.24          3.701          159.1          83.15          130.5
